M72
M48
T1F00S00C0.0520
T2F00S00C0.0512
T3F00S00C0.0400
T4F00S00C0.0280
%
T01
X0023Y0019
Y0039
Y00765
Y00965
T02
X0065Y0109
X0085
X0075Y0119
X01385Y0109
X01485Y0119
X01585Y0109
T03
X01885Y0046
Y0056
Y0066
Y0076
T04
X00495Y00065
X00585
X0067
X00755
X00845
X0093
X01305Y0008
X013451Y004499
X01225Y0046
X0119Y00535
X01355Y00605
X01455Y00525
X0071Y0056
X007Y00481
X00621Y00482
X00546
X00365Y0058
X00275
X0019
X00215Y0116
X0013
X00305
X01025Y01155
X0111
X012
X0115Y01005
X00905Y0088
X0152Y00895
X01525Y00605
X01645Y00365
X0165Y0014
X01875Y0011
Y00195
Y00285
X01855Y0098
Y01065
Y01155
M30
