%FSLAX25Y25*%
%MOIN*%
G70*
G01*
G75*
%ADD10C,0.01000*%
%ADD11R,0.06693X0.03937*%
%ADD12O,0.08661X0.02362*%
%ADD13R,0.13465X0.04921*%
%ADD14R,0.08661X0.02362*%
%ADD15R,0.01969X0.07087*%
%ADD16O,0.07087X0.11811*%
%ADD17R,0.01969X0.04724*%
%ADD18R,0.06693X0.09843*%
%ADD19R,0.08000X0.06693*%
%ADD20R,0.03937X0.06693*%
%ADD21R,0.05118X0.03937*%
%ADD22R,0.03150X0.03543*%
%ADD23R,0.03543X0.03150*%
%ADD24C,0.04000*%
%ADD25C,0.02000*%
%ADD26C,0.01500*%
%ADD27O,0.07874X0.06693*%
%ADD28C,0.05906*%
%ADD29O,0.07087X0.05906*%
%ADD30R,0.07087X0.05906*%
%ADD31C,0.05000*%
%ADD32C,0.00787*%
%ADD33C,0.00984*%
%ADD34C,0.00600*%
%ADD35C,0.00800*%
%ADD36R,0.07493X0.04737*%
%ADD37O,0.09461X0.03162*%
%ADD38R,0.14265X0.05721*%
%ADD39R,0.09461X0.03162*%
%ADD40R,0.02768X0.07887*%
%ADD41O,0.07887X0.12611*%
%ADD42R,0.02768X0.05524*%
%ADD43R,0.07493X0.10643*%
%ADD44R,0.08800X0.07493*%
%ADD45R,0.04737X0.07493*%
%ADD46R,0.05918X0.04737*%
%ADD47R,0.03950X0.04343*%
%ADD48R,0.04343X0.03950*%
%ADD49O,0.08674X0.07493*%
%ADD50C,0.06706*%
%ADD51O,0.07887X0.06706*%
%ADD52R,0.07887X0.06706*%
%ADD53C,0.05800*%
%ADD54C,0.00394*%
%ADD55C,0.00667*%
D54*
X938837Y845381D02*
Y849381D01*
X942837D01*
Y845381D01*
X938837D01*
Y825381D02*
Y829381D01*
X942837D01*
Y825381D01*
X938837D01*
Y787881D02*
Y791881D01*
X942837D01*
Y787881D01*
X938837D01*
Y767881D02*
Y771881D01*
X942837D01*
Y767881D01*
X938837D01*
X1106337Y804881D02*
X1104337Y808881D01*
X1108337D01*
X1106337Y804881D01*
Y794881D02*
X1104337Y798881D01*
X1108337D01*
X1106337Y794881D01*
Y814881D02*
X1104337Y818881D01*
X1108337D01*
X1106337Y814881D01*
Y824881D02*
X1104337Y828881D01*
X1108337D01*
X1106337Y824881D01*
X1070337Y809381D02*
X1071337Y810381D01*
X1072337D01*
X1071337Y811381D01*
X1072337Y812381D01*
X1071337D01*
X1070337Y813381D01*
X1069337Y812381D01*
X1068337D01*
X1069337Y811381D01*
X1068337Y810381D01*
X1069337D01*
X1070337Y809381D01*
X1069837Y838381D02*
X1070837Y839381D01*
X1071837D01*
X1070837Y840381D01*
X1071837Y841381D01*
X1070837D01*
X1069837Y842381D01*
X1068837Y841381D01*
X1067837D01*
X1068837Y840381D01*
X1067837Y839381D01*
X1068837D01*
X1069837Y838381D01*
X1036837Y802381D02*
X1037837Y803381D01*
X1038837D01*
X1037837Y804381D01*
X1038837Y805381D01*
X1037837D01*
X1036837Y806381D01*
X1035837Y805381D01*
X1034837D01*
X1035837Y804381D01*
X1034837Y803381D01*
X1035837D01*
X1036837Y802381D01*
X1082837Y762881D02*
X1083837Y763881D01*
X1084837D01*
X1083837Y764881D01*
X1084837Y765881D01*
X1083837D01*
X1082837Y766881D01*
X1081837Y765881D01*
X1080837D01*
X1081837Y764881D01*
X1080837Y763881D01*
X1081837D01*
X1082837Y762881D01*
X1083837Y763881D01*
X1084837D01*
X1083837Y764881D01*
X1084837Y765881D01*
X1083837D01*
X1082837Y766881D01*
X1081837Y765881D01*
X1080837D01*
X1081837Y764881D01*
X1080837Y763881D01*
X1081837D01*
X1082837Y762881D01*
X1082337Y785381D02*
X1083337Y786381D01*
X1084337D01*
X1083337Y787381D01*
X1084337Y788381D01*
X1083337D01*
X1082337Y789381D01*
X1081337Y788381D01*
X1080337D01*
X1081337Y787381D01*
X1080337Y786381D01*
X1081337D01*
X1082337Y785381D01*
X1052349Y793869D02*
X1053349Y794869D01*
X1054349D01*
X1053349Y795869D01*
X1054349Y796869D01*
X1053349D01*
X1052349Y797869D01*
X1051349Y796869D01*
X1050349D01*
X1051349Y795869D01*
X1050349Y794869D01*
X1051349D01*
X1052349Y793869D01*
X1063337Y801381D02*
X1064337Y802381D01*
X1065337D01*
X1064337Y803381D01*
X1065337Y804381D01*
X1064337D01*
X1063337Y805381D01*
X1062337Y804381D01*
X1061337D01*
X1062337Y803381D01*
X1061337Y802381D01*
X1062337D01*
X1063337Y801381D01*
X1048337Y756881D02*
X1049337Y757881D01*
X1050337D01*
X1049337Y758881D01*
X1050337Y759881D01*
X1049337D01*
X1048337Y760881D01*
X1047337Y759881D01*
X1046337D01*
X1047337Y758881D01*
X1046337Y757881D01*
X1047337D01*
X1048337Y756881D01*
X1008337Y836881D02*
X1009337Y837881D01*
X1010337D01*
X1009337Y838881D01*
X1010337Y839881D01*
X1009337D01*
X1008337Y840881D01*
X1007337Y839881D01*
X1006337D01*
X1007337Y838881D01*
X1006337Y837881D01*
X1007337D01*
X1008337Y836881D01*
X1040337Y794881D02*
X1041337Y795881D01*
X1042337D01*
X1041337Y796881D01*
X1042337Y797881D01*
X1041337D01*
X1040337Y798881D01*
X1039337Y797881D01*
X1038337D01*
X1039337Y796881D01*
X1038337Y795881D01*
X1039337D01*
X1040337Y794881D01*
X1053337Y809381D02*
X1054337Y810381D01*
X1055337D01*
X1054337Y811381D01*
X1055337Y812381D01*
X1054337D01*
X1053337Y813381D01*
X1052337Y812381D01*
X1051337D01*
X1052337Y811381D01*
X1051337Y810381D01*
X1052337D01*
X1053337Y809381D01*
X988837Y804881D02*
X989837Y805881D01*
X990837D01*
X989837Y806881D01*
X990837Y807881D01*
X989837D01*
X988837Y808881D01*
X987837Y807881D01*
X986837D01*
X987837Y806881D01*
X986837Y805881D01*
X987837D01*
X988837Y804881D01*
X954337Y806881D02*
X955337Y807881D01*
X956337D01*
X955337Y808881D01*
X956337Y809881D01*
X955337D01*
X954337Y810881D01*
X953337Y809881D01*
X952337D01*
X953337Y808881D01*
X952337Y807881D01*
X953337D01*
X954337Y806881D01*
X936837D02*
X937837Y807881D01*
X938837D01*
X937837Y808881D01*
X938837Y809881D01*
X937837D01*
X936837Y810881D01*
X935837Y809881D01*
X934837D01*
X935837Y808881D01*
X934837Y807881D01*
X935837D01*
X936837Y806881D01*
X945337D02*
X946337Y807881D01*
X947337D01*
X946337Y808881D01*
X947337Y809881D01*
X946337D01*
X945337Y810881D01*
X944337Y809881D01*
X943337D01*
X944337Y808881D01*
X943337Y807881D01*
X944337D01*
X945337Y806881D01*
X948337Y864881D02*
X949337Y865881D01*
X950337D01*
X949337Y866881D01*
X950337Y867881D01*
X949337D01*
X948337Y868881D01*
X947337Y867881D01*
X946337D01*
X947337Y866881D01*
X946337Y865881D01*
X947337D01*
X948337Y864881D01*
X930837D02*
X931837Y865881D01*
X932837D01*
X931837Y866881D01*
X932837Y867881D01*
X931837D01*
X930837Y868881D01*
X929837Y867881D01*
X928837D01*
X929837Y866881D01*
X928837Y865881D01*
X929837D01*
X930837Y864881D01*
X939337D02*
X940337Y865881D01*
X941337D01*
X940337Y866881D01*
X941337Y867881D01*
X940337D01*
X939337Y868881D01*
X938337Y867881D01*
X937337D01*
X938337Y866881D01*
X937337Y865881D01*
X938337D01*
X939337Y864881D01*
X1037837Y864381D02*
X1038837Y865381D01*
X1039837D01*
X1038837Y866381D01*
X1039837Y867381D01*
X1038837D01*
X1037837Y868381D01*
X1036837Y867381D01*
X1035837D01*
X1036837Y866381D01*
X1035837Y865381D01*
X1036837D01*
X1037837Y864381D01*
X1020337D02*
X1021337Y865381D01*
X1022337D01*
X1021337Y866381D01*
X1022337Y867381D01*
X1021337D01*
X1020337Y868381D01*
X1019337Y867381D01*
X1018337D01*
X1019337Y866381D01*
X1018337Y865381D01*
X1019337D01*
X1020337Y864381D01*
X1028837D02*
X1029837Y865381D01*
X1030837D01*
X1029837Y866381D01*
X1030837Y867381D01*
X1029837D01*
X1028837Y868381D01*
X1027837Y867381D01*
X1026837D01*
X1027837Y866381D01*
X1026837Y865381D01*
X1027837D01*
X1028837Y864381D01*
X1103337D02*
X1104337Y865381D01*
X1105337D01*
X1104337Y866381D01*
X1105337Y867381D01*
X1104337D01*
X1103337Y868381D01*
X1102337Y867381D01*
X1101337D01*
X1102337Y866381D01*
X1101337Y865381D01*
X1102337D01*
X1103337Y864381D01*
Y846881D02*
X1104337Y847881D01*
X1105337D01*
X1104337Y848881D01*
X1105337Y849881D01*
X1104337D01*
X1103337Y850881D01*
X1102337Y849881D01*
X1101337D01*
X1102337Y848881D01*
X1101337Y847881D01*
X1102337D01*
X1103337Y846881D01*
Y855381D02*
X1104337Y856381D01*
X1105337D01*
X1104337Y857381D01*
X1105337Y858381D01*
X1104337D01*
X1103337Y859381D01*
X1102337Y858381D01*
X1101337D01*
X1102337Y857381D01*
X1101337Y856381D01*
X1102337D01*
X1103337Y855381D01*
X1105337Y777381D02*
X1106337Y778381D01*
X1107337D01*
X1106337Y779381D01*
X1107337Y780381D01*
X1106337D01*
X1105337Y781381D01*
X1104337Y780381D01*
X1103337D01*
X1104337Y779381D01*
X1103337Y778381D01*
X1104337D01*
X1105337Y777381D01*
Y759881D02*
X1106337Y760881D01*
X1107337D01*
X1106337Y761881D01*
X1107337Y762881D01*
X1106337D01*
X1105337Y763881D01*
X1104337Y762881D01*
X1103337D01*
X1104337Y761881D01*
X1103337Y760881D01*
X1104337D01*
X1105337Y759881D01*
Y768381D02*
X1106337Y769381D01*
X1107337D01*
X1106337Y770381D01*
X1107337Y771381D01*
X1106337D01*
X1105337Y772381D01*
X1104337Y771381D01*
X1103337D01*
X1104337Y770381D01*
X1103337Y769381D01*
X1104337D01*
X1105337Y768381D01*
X967337Y755381D02*
X968337Y756381D01*
X969337D01*
X968337Y757381D01*
X969337Y758381D01*
X968337D01*
X967337Y759381D01*
X966337Y758381D01*
X965337D01*
X966337Y757381D01*
X965337Y756381D01*
X966337D01*
X967337Y755381D01*
X984837D02*
X985837Y756381D01*
X986837D01*
X985837Y757381D01*
X986837Y758381D01*
X985837D01*
X984837Y759381D01*
X983837Y758381D01*
X982837D01*
X983837Y757381D01*
X982837Y756381D01*
X983837D01*
X984837Y755381D01*
X976337D02*
X977337Y756381D01*
X978337D01*
X977337Y757381D01*
X978337Y758381D01*
X977337D01*
X976337Y759381D01*
X975337Y758381D01*
X974337D01*
X975337Y757381D01*
X974337Y756381D01*
X975337D01*
X976337Y755381D01*
X993337D02*
X994337Y756381D01*
X995337D01*
X994337Y757381D01*
X995337Y758381D01*
X994337D01*
X993337Y759381D01*
X992337Y758381D01*
X991337D01*
X992337Y757381D01*
X991337Y756381D01*
X992337D01*
X993337Y755381D01*
X1010837D02*
X1011837Y756381D01*
X1012837D01*
X1011837Y757381D01*
X1012837Y758381D01*
X1011837D01*
X1010837Y759381D01*
X1009837Y758381D01*
X1008837D01*
X1009837Y757381D01*
X1008837Y756381D01*
X1009837D01*
X1010837Y755381D01*
X1002337D02*
X1003337Y756381D01*
X1004337D01*
X1003337Y757381D01*
X1004337Y758381D01*
X1003337D01*
X1002337Y759381D01*
X1001337Y758381D01*
X1000337D01*
X1001337Y757381D01*
X1000337Y756381D01*
X1001337D01*
X1002337Y755381D01*
X1032837Y849381D02*
X1033837Y850381D01*
X1034837D01*
X1033837Y851381D01*
X1034837Y852381D01*
X1033837D01*
X1032837Y853381D01*
X1031837Y852381D01*
X1030837D01*
X1031837Y851381D01*
X1030837Y850381D01*
X1031837D01*
X1032837Y849381D01*
X972437Y797081D02*
X973437Y798081D01*
X974437D01*
X973437Y799081D01*
X974437Y800081D01*
X973437D01*
X972437Y801081D01*
X971437Y800081D01*
X970437D01*
X971437Y799081D01*
X970437Y798081D01*
X971437D01*
X972437Y797081D01*
X979937D02*
X980937Y798081D01*
X981937D01*
X980937Y799081D01*
X981937Y800081D01*
X980937D01*
X979937Y801081D01*
X978937Y800081D01*
X977937D01*
X978937Y799081D01*
X977937Y798081D01*
X978937D01*
X979937Y797081D01*
X987837Y796981D02*
X988837Y797981D01*
X989837D01*
X988837Y798981D01*
X989837Y799981D01*
X988837D01*
X987837Y800981D01*
X986837Y799981D01*
X985837D01*
X986837Y798981D01*
X985837Y797981D01*
X986837D01*
X987837Y796981D01*
D55*
X1068337Y869881D02*
X1068108Y870811D01*
X1067473Y871527D01*
X1066578Y871867D01*
X1065628Y871751D01*
X1064840Y871207D01*
X1064395Y870360D01*
Y869403D01*
X1064840Y868555D01*
X1065628Y868011D01*
X1066578Y867896D01*
X1067473Y868235D01*
X1068108Y868952D01*
X1068337Y869881D01*
X1058337Y859881D02*
X1058108Y860811D01*
X1057473Y861527D01*
X1056578Y861866D01*
X1055628Y861751D01*
X1054840Y861207D01*
X1054395Y860360D01*
Y859402D01*
X1054840Y858555D01*
X1055628Y858011D01*
X1056578Y857896D01*
X1057473Y858235D01*
X1058108Y858952D01*
X1058337Y859881D01*
X1078337D02*
X1078108Y860811D01*
X1077473Y861527D01*
X1076578Y861866D01*
X1075628Y861751D01*
X1074840Y861207D01*
X1074395Y860360D01*
Y859402D01*
X1074840Y858555D01*
X1075628Y858011D01*
X1076578Y857896D01*
X1077473Y858235D01*
X1078108Y858952D01*
X1078337Y859881D01*
X1004837D02*
X1004608Y860811D01*
X1003973Y861527D01*
X1003078Y861866D01*
X1002128Y861751D01*
X1001340Y861207D01*
X1000895Y860360D01*
Y859402D01*
X1001340Y858555D01*
X1002128Y858011D01*
X1003078Y857896D01*
X1003973Y858235D01*
X1004608Y858952D01*
X1004837Y859881D01*
X984837D02*
X984608Y860811D01*
X983973Y861527D01*
X983078Y861866D01*
X982128Y861751D01*
X981340Y861207D01*
X980895Y860360D01*
Y859402D01*
X981340Y858555D01*
X982128Y858011D01*
X983078Y857896D01*
X983973Y858235D01*
X984608Y858952D01*
X984837Y859881D01*
X994837Y869881D02*
X994608Y870811D01*
X993973Y871527D01*
X993078Y871867D01*
X992128Y871751D01*
X991340Y871207D01*
X990895Y870360D01*
Y869403D01*
X991340Y868555D01*
X992128Y868011D01*
X993078Y867896D01*
X993973Y868235D01*
X994608Y868952D01*
X994837Y869881D01*
M02*
