%FSLAX25Y25*%
%MOIN*%
G70*
G01*
G75*
%ADD10C,0.01000*%
%ADD11R,0.06693X0.03937*%
%ADD12O,0.08661X0.02362*%
%ADD13R,0.13465X0.04921*%
%ADD14R,0.08661X0.02362*%
%ADD15R,0.01969X0.07087*%
%ADD16O,0.07087X0.11811*%
%ADD17R,0.01969X0.04724*%
%ADD18R,0.06693X0.09843*%
%ADD19R,0.08000X0.06693*%
%ADD20R,0.03937X0.06693*%
%ADD21R,0.05118X0.03937*%
%ADD22R,0.03150X0.03543*%
%ADD23R,0.03543X0.03150*%
%ADD24C,0.04000*%
%ADD25C,0.02000*%
%ADD26C,0.01500*%
%ADD27O,0.07874X0.06693*%
%ADD28C,0.05906*%
%ADD29O,0.07087X0.05906*%
%ADD30R,0.07087X0.05906*%
%ADD31C,0.05000*%
%ADD32C,0.00787*%
%ADD33C,0.00984*%
%ADD34C,0.00600*%
%ADD35C,0.00800*%
%ADD36R,0.07493X0.04737*%
%ADD37O,0.09461X0.03162*%
%ADD38R,0.14265X0.05721*%
%ADD39R,0.09461X0.03162*%
%ADD40R,0.02768X0.07887*%
%ADD41O,0.07887X0.12611*%
%ADD42R,0.02768X0.05524*%
%ADD43R,0.07493X0.10643*%
%ADD44R,0.08800X0.07493*%
%ADD45R,0.04737X0.07493*%
%ADD46R,0.05918X0.04737*%
%ADD47R,0.03950X0.04343*%
%ADD48R,0.04343X0.03950*%
%ADD49O,0.08674X0.07493*%
%ADD50C,0.06706*%
%ADD51O,0.07887X0.06706*%
%ADD52R,0.07887X0.06706*%
%ADD53C,0.05800*%
%ADD54C,0.00394*%
%ADD55C,0.00667*%
D54*
X938237Y847381D02*
X943438D01*
X940837Y844781D02*
Y849981D01*
X938237Y827381D02*
X943438D01*
X940837Y824781D02*
Y829982D01*
X1063778Y869881D02*
X1068896D01*
X1066337Y867322D02*
Y872440D01*
X1053778Y859881D02*
X1058896D01*
X1056337Y857322D02*
Y862440D01*
X1073778Y859881D02*
X1078896D01*
X1076337Y857322D02*
Y862440D01*
X1000278Y859881D02*
X1005396D01*
X1002837Y857322D02*
Y862440D01*
X980278Y859881D02*
X985396D01*
X982837Y857322D02*
Y862440D01*
X990278Y869881D02*
X995396D01*
X992837Y867322D02*
Y872440D01*
X938237Y789881D02*
X943438D01*
X940837Y787281D02*
Y792482D01*
X938237Y769881D02*
X943438D01*
X940837Y767281D02*
Y772481D01*
X1104337Y806881D02*
X1108337D01*
X1106337Y804881D02*
Y808881D01*
X1104337Y796881D02*
X1108337D01*
X1106337Y794881D02*
Y798881D01*
X1104337Y816881D02*
X1108337D01*
X1106337Y814881D02*
Y818881D01*
X1104337Y826881D02*
X1108337D01*
X1106337Y824881D02*
Y828881D01*
X1068937Y811381D02*
X1071737D01*
X1070337Y809981D02*
Y812781D01*
X1068437Y840381D02*
X1071237D01*
X1069837Y838981D02*
Y841781D01*
X1035437Y804381D02*
X1038237D01*
X1036837Y802981D02*
Y805781D01*
X1081437Y764881D02*
X1084237D01*
X1082837Y763481D02*
Y766281D01*
X1081437Y764881D02*
X1084237D01*
X1082837Y763481D02*
Y766281D01*
X1080937Y787381D02*
X1083737D01*
X1082337Y785981D02*
Y788781D01*
X1050949Y795869D02*
X1053749D01*
X1052349Y794469D02*
Y797269D01*
X1061937Y803381D02*
X1064737D01*
X1063337Y801981D02*
Y804781D01*
X1046937Y758881D02*
X1049737D01*
X1048337Y757481D02*
Y760281D01*
X1006937Y838881D02*
X1009737D01*
X1008337Y837481D02*
Y840281D01*
X1038937Y796881D02*
X1041737D01*
X1040337Y795481D02*
Y798281D01*
X1051937Y811381D02*
X1054737D01*
X1053337Y809981D02*
Y812781D01*
X987437Y806881D02*
X990237D01*
X988837Y805481D02*
Y808281D01*
X952937Y808881D02*
X955737D01*
X954337Y807481D02*
Y810281D01*
X935437Y808881D02*
X938237D01*
X936837Y807481D02*
Y810281D01*
X943937Y808881D02*
X946737D01*
X945337Y807481D02*
Y810281D01*
X946937Y866881D02*
X949737D01*
X948337Y865481D02*
Y868281D01*
X929437Y866881D02*
X932237D01*
X930837Y865481D02*
Y868281D01*
X937937Y866881D02*
X940737D01*
X939337Y865481D02*
Y868281D01*
X1036437Y866381D02*
X1039237D01*
X1037837Y864981D02*
Y867781D01*
X1018937Y866381D02*
X1021737D01*
X1020337Y864981D02*
Y867781D01*
X1027437Y866381D02*
X1030237D01*
X1028837Y864981D02*
Y867781D01*
X1101937Y866381D02*
X1104737D01*
X1103337Y864981D02*
Y867781D01*
X1101937Y848881D02*
X1104737D01*
X1103337Y847481D02*
Y850281D01*
X1101937Y857381D02*
X1104737D01*
X1103337Y855981D02*
Y858781D01*
X1103937Y779381D02*
X1106737D01*
X1105337Y777981D02*
Y780781D01*
X1103937Y761881D02*
X1106737D01*
X1105337Y760481D02*
Y763281D01*
X1103937Y770381D02*
X1106737D01*
X1105337Y768981D02*
Y771781D01*
X965937Y757381D02*
X968737D01*
X967337Y755981D02*
Y758781D01*
X983437Y757381D02*
X986237D01*
X984837Y755981D02*
Y758781D01*
X974937Y757381D02*
X977737D01*
X976337Y755981D02*
Y758781D01*
X991937Y757381D02*
X994737D01*
X993337Y755981D02*
Y758781D01*
X1009437Y757381D02*
X1012237D01*
X1010837Y755981D02*
Y758781D01*
X1000937Y757381D02*
X1003737D01*
X1002337Y755981D02*
Y758781D01*
X1031437Y851381D02*
X1034237D01*
X1032837Y849981D02*
Y852781D01*
X971037Y799081D02*
X973837D01*
X972437Y797681D02*
Y800481D01*
X978537Y799081D02*
X981337D01*
X979937Y797681D02*
Y800481D01*
X986437Y798981D02*
X989237D01*
X987837Y797581D02*
Y800381D01*
M02*
