%FSLAX25Y25*%
%MOIN*%
G70*
G01*
G75*
%ADD10C,0.01000*%
%ADD11R,0.06693X0.03937*%
%ADD12O,0.08661X0.02362*%
%ADD13R,0.13465X0.04921*%
%ADD14R,0.08661X0.02362*%
%ADD15R,0.01969X0.07087*%
%ADD16O,0.07087X0.11811*%
%ADD17R,0.01969X0.04724*%
%ADD18R,0.06693X0.09843*%
%ADD19R,0.08000X0.06693*%
%ADD20R,0.03937X0.06693*%
%ADD21R,0.05118X0.03937*%
%ADD22R,0.03150X0.03543*%
%ADD23R,0.03543X0.03150*%
%ADD24C,0.04000*%
%ADD25C,0.02000*%
%ADD26C,0.01500*%
%ADD27O,0.07874X0.06693*%
%ADD28C,0.05906*%
%ADD29O,0.07087X0.05906*%
%ADD30R,0.07087X0.05906*%
%ADD31C,0.05000*%
%ADD32C,0.00787*%
%ADD33C,0.00984*%
%ADD34C,0.00600*%
%ADD35C,0.00800*%
%ADD36R,0.07493X0.04737*%
%ADD37O,0.09461X0.03162*%
%ADD38R,0.14265X0.05721*%
%ADD39R,0.09461X0.03162*%
%ADD40R,0.02768X0.07887*%
%ADD41O,0.07887X0.12611*%
%ADD42R,0.02768X0.05524*%
%ADD43R,0.07493X0.10643*%
%ADD44R,0.08800X0.07493*%
%ADD45R,0.04737X0.07493*%
%ADD46R,0.05918X0.04737*%
%ADD47R,0.03950X0.04343*%
%ADD48R,0.04343X0.03950*%
%ADD49O,0.08674X0.07493*%
%ADD50C,0.06706*%
%ADD51O,0.07887X0.06706*%
%ADD52R,0.07887X0.06706*%
%ADD53C,0.05800*%
%ADD54C,0.00394*%
D11*
X988337Y812582D02*
D03*
Y825180D02*
D03*
X1002337Y812582D02*
D03*
Y825180D02*
D03*
D12*
X1054810Y774881D02*
D03*
X1034337Y764881D02*
D03*
X1054810D02*
D03*
X1034337Y769881D02*
D03*
X1054810D02*
D03*
X1034337Y774881D02*
D03*
X1054810Y779881D02*
D03*
X1059837Y821381D02*
D03*
Y816381D02*
D03*
Y811381D02*
D03*
X1080310Y826381D02*
D03*
Y821381D02*
D03*
Y816381D02*
D03*
Y811381D02*
D03*
D13*
X995337Y765176D02*
D03*
Y789586D02*
D03*
X977337Y765176D02*
D03*
Y789586D02*
D03*
D14*
X1034337Y779881D02*
D03*
X1059837Y826381D02*
D03*
D15*
X1020837Y815369D02*
D03*
D16*
Y824031D02*
D03*
D17*
X1026743Y814188D02*
D03*
X1014932D02*
D03*
D18*
X974337Y826255D02*
D03*
Y810507D02*
D03*
D19*
X1068038Y795381D02*
D03*
D20*
X1078636D02*
D03*
D21*
X1037337Y815232D02*
D03*
Y821531D02*
D03*
D22*
X1052349Y790181D02*
D03*
X1046837D02*
D03*
X1022837Y790181D02*
D03*
X1017325D02*
D03*
X1031826D02*
D03*
X1037337D02*
D03*
X1073337Y772881D02*
D03*
X1067826D02*
D03*
X1073337Y764381D02*
D03*
X1067826D02*
D03*
X1017325D02*
D03*
X1022837D02*
D03*
X1031837Y798781D02*
D03*
X1037349D02*
D03*
X981837Y839676D02*
D03*
X987349D02*
D03*
X1060849D02*
D03*
X1055337D02*
D03*
X1017325Y798781D02*
D03*
X1022837D02*
D03*
X1060837Y848276D02*
D03*
X1055326D02*
D03*
X1000325D02*
D03*
X1005837D02*
D03*
X1079337D02*
D03*
X1073825D02*
D03*
X981826D02*
D03*
X987337D02*
D03*
X1017337Y781881D02*
D03*
X1022849D02*
D03*
Y772881D02*
D03*
X1017337D02*
D03*
X1067826Y781381D02*
D03*
X1073337D02*
D03*
D23*
X1090837Y796881D02*
D03*
Y791369D02*
D03*
X1046837Y820881D02*
D03*
Y815369D02*
D03*
D27*
X940837Y847381D02*
D03*
Y827381D02*
D03*
Y789881D02*
D03*
Y769881D02*
D03*
D28*
X1066337Y869881D02*
D03*
X1056337Y859881D02*
D03*
X1076337D02*
D03*
X1002837D02*
D03*
X982837D02*
D03*
X992837Y869881D02*
D03*
D29*
X1106337Y806881D02*
D03*
Y796881D02*
D03*
Y816881D02*
D03*
D30*
Y826881D02*
D03*
M02*
