%FSLAX25Y25*%
%MOIN*%
G70*
G01*
G75*
%ADD10C,0.01000*%
%ADD11R,0.06693X0.03937*%
%ADD12O,0.08661X0.02362*%
%ADD13R,0.13465X0.04921*%
%ADD14R,0.08661X0.02362*%
%ADD15R,0.01969X0.07087*%
%ADD16O,0.07087X0.11811*%
%ADD17R,0.01969X0.04724*%
%ADD18R,0.06693X0.09843*%
%ADD19R,0.08000X0.06693*%
%ADD20R,0.03937X0.06693*%
%ADD21R,0.05118X0.03937*%
%ADD22R,0.03150X0.03543*%
%ADD23R,0.03543X0.03150*%
%ADD24C,0.04000*%
%ADD25C,0.02000*%
%ADD26C,0.01500*%
%ADD27O,0.07874X0.06693*%
%ADD28C,0.05906*%
%ADD29O,0.07087X0.05906*%
%ADD30R,0.07087X0.05906*%
%ADD31C,0.05000*%
%ADD32C,0.00787*%
%ADD33C,0.00984*%
%ADD34C,0.00600*%
%ADD35C,0.00800*%
D10*
X920837Y817381D02*
X960837D01*
X920837D02*
Y857381D01*
X960837D01*
Y817381D02*
Y857381D01*
X920837Y852381D02*
X930837D01*
X920837Y822381D02*
X930837D01*
X920837Y832381D02*
X930837D01*
X920837Y842381D02*
X930837D01*
Y852381D01*
Y822381D02*
Y832381D01*
X950837Y817381D02*
Y857381D01*
X920837Y759881D02*
X960837D01*
X920837D02*
Y799881D01*
X960837D01*
Y759881D02*
Y799881D01*
X920837Y794881D02*
X930837D01*
X920837Y764881D02*
X930837D01*
X920837Y774881D02*
X930837D01*
X920837Y784881D02*
X930837D01*
Y794881D01*
Y764881D02*
Y774881D01*
X950837Y759881D02*
Y799881D01*
D32*
X1043324Y782381D02*
X1043690Y781497D01*
X1044573Y781131D01*
X1045457Y781497D01*
X1045823Y782381D01*
X1068824Y828881D02*
X1069190Y827997D01*
X1070074Y827631D01*
X1070957Y827997D01*
X1071323Y828881D01*
X1041955Y782381D02*
X1043324D01*
X1045823D02*
X1047192D01*
Y762381D02*
Y782381D01*
X1041955Y762381D02*
X1047192D01*
X1041955D02*
Y782381D01*
X1067455Y828881D02*
X1068824D01*
X1071323D02*
X1072692D01*
Y808881D02*
Y828881D01*
X1067455Y808881D02*
X1072692D01*
X1067455D02*
Y828881D01*
X1025955Y825999D02*
X1029892D01*
Y815763D02*
Y825999D01*
X1011782D02*
X1015719D01*
X1011782Y815763D02*
Y825999D01*
X1101337Y791881D02*
X1111337D01*
X1101337D02*
Y831881D01*
X1111337Y791881D02*
Y831881D01*
X1101337D02*
X1111337D01*
X968826Y809326D02*
Y827436D01*
X979849Y809326D02*
Y827436D01*
X968826Y809326D02*
X969711D01*
X968826Y827436D02*
X969711D01*
X978963Y809326D02*
X979849D01*
X978963Y827436D02*
X979849D01*
D33*
X1012274Y813204D02*
X1011536Y813630D01*
Y812778D01*
X1012274Y813204D01*
D34*
X983337Y828881D02*
X993337D01*
X983337Y808881D02*
Y828881D01*
Y808881D02*
X993337D01*
Y828881D01*
X997337D02*
X1007337D01*
X997337Y808881D02*
Y828881D01*
Y808881D02*
X1007337D01*
Y828881D01*
X1101337Y821881D02*
X1111337D01*
X1082337Y790381D02*
Y800381D01*
X1062337D02*
X1082337D01*
X1062337Y790381D02*
Y800381D01*
Y790381D02*
X1082337D01*
X1040837Y811881D02*
Y816881D01*
X1033837Y811881D02*
X1040837D01*
X1033837D02*
Y816881D01*
X1040837Y819881D02*
Y824881D01*
X1033837D02*
X1040837D01*
X1033837Y819881D02*
Y824881D01*
X1044093Y787181D02*
Y793181D01*
X1055093Y787181D02*
Y793181D01*
X1044093D02*
X1047625D01*
X1051562D02*
X1053530D01*
X1055093D01*
X1044093Y787181D02*
X1047625D01*
X1051562D02*
X1053530D01*
X1055093D01*
X1014581Y793181D02*
X1016144D01*
X1018113D01*
X1022050D02*
X1025581D01*
X1014581Y787181D02*
X1016144D01*
X1018113D01*
X1022050D02*
X1025581D01*
X1014581D02*
Y793181D01*
X1025581Y787181D02*
Y793181D01*
X1040081Y787181D02*
Y793181D01*
X1029081Y787181D02*
Y793181D01*
X1036550Y787181D02*
X1040081D01*
X1030644D02*
X1032613D01*
X1029081D02*
X1030644D01*
X1036550Y793181D02*
X1040081D01*
X1030644D02*
X1032613D01*
X1029081D02*
X1030644D01*
X1065081Y775881D02*
X1066644D01*
X1068613D01*
X1072550D02*
X1076081D01*
X1065081Y769881D02*
X1066644D01*
X1068613D01*
X1072550D02*
X1076081D01*
X1065081D02*
Y775881D01*
X1076081Y769881D02*
Y775881D01*
X1065081Y767381D02*
X1066644D01*
X1068613D01*
X1072550D02*
X1076081D01*
X1065081Y761381D02*
X1066644D01*
X1068613D01*
X1072550D02*
X1076081D01*
X1065081D02*
Y767381D01*
X1076081Y761381D02*
Y767381D01*
X1087837Y788625D02*
Y790188D01*
Y792157D01*
Y796094D02*
Y799625D01*
X1093837Y788625D02*
Y790188D01*
Y792157D01*
Y796094D02*
Y799625D01*
X1087837Y788625D02*
X1093837D01*
X1087837Y799625D02*
X1093837D01*
X1025581Y761381D02*
Y767381D01*
X1014581Y761381D02*
Y767381D01*
X1022050Y761381D02*
X1025581D01*
X1016144D02*
X1018113D01*
X1014581D02*
X1016144D01*
X1022050Y767381D02*
X1025581D01*
X1016144D02*
X1018113D01*
X1014581D02*
X1016144D01*
X1038530Y795781D02*
X1040093D01*
X1036562D02*
X1038530D01*
X1029093D02*
X1032625D01*
X1038530Y801781D02*
X1040093D01*
X1036562D02*
X1038530D01*
X1029093D02*
X1032625D01*
X1040093Y795781D02*
Y801781D01*
X1029093Y795781D02*
Y801781D01*
X988530Y836676D02*
X990093D01*
X986562D02*
X988530D01*
X979093D02*
X982625D01*
X988530Y842676D02*
X990093D01*
X986562D02*
X988530D01*
X979093D02*
X982625D01*
X990093Y836676D02*
Y842676D01*
X979093Y836676D02*
Y842676D01*
X1052593Y836676D02*
Y842676D01*
X1063593Y836676D02*
Y842676D01*
X1052593D02*
X1056125D01*
X1060062D02*
X1062030D01*
X1063593D01*
X1052593Y836676D02*
X1056125D01*
X1060062D02*
X1062030D01*
X1063593D01*
X1043837Y812625D02*
Y814188D01*
Y816157D01*
Y820094D02*
Y823625D01*
X1049837Y812625D02*
Y814188D01*
Y816157D01*
Y820094D02*
Y823625D01*
X1043837Y812625D02*
X1049837D01*
X1043837Y823625D02*
X1049837D01*
X1025581Y795781D02*
Y801781D01*
X1014581Y795781D02*
Y801781D01*
X1022050Y795781D02*
X1025581D01*
X1016144D02*
X1018113D01*
X1014581D02*
X1016144D01*
X1022050Y801781D02*
X1025581D01*
X1016144D02*
X1018113D01*
X1014581D02*
X1016144D01*
X1052581Y851276D02*
X1054144D01*
X1056113D01*
X1060050D02*
X1063581D01*
X1052581Y845276D02*
X1054144D01*
X1056113D01*
X1060050D02*
X1063581D01*
X1052581D02*
Y851276D01*
X1063581Y845276D02*
Y851276D01*
X1008581Y845276D02*
Y851276D01*
X997581Y845276D02*
Y851276D01*
X1005050Y845276D02*
X1008581D01*
X999144D02*
X1001113D01*
X997581D02*
X999144D01*
X1005050Y851276D02*
X1008581D01*
X999144D02*
X1001113D01*
X997581D02*
X999144D01*
X1071081D02*
X1072644D01*
X1074613D01*
X1078550D02*
X1082081D01*
X1071081Y845276D02*
X1072644D01*
X1074613D01*
X1078550D02*
X1082081D01*
X1071081D02*
Y851276D01*
X1082081Y845276D02*
Y851276D01*
X990081Y845276D02*
Y851276D01*
X979081Y845276D02*
Y851276D01*
X986550Y845276D02*
X990081D01*
X980644D02*
X982613D01*
X979081D02*
X980644D01*
X986550Y851276D02*
X990081D01*
X980644D02*
X982613D01*
X979081D02*
X980644D01*
X1024030Y778881D02*
X1025593D01*
X1022062D02*
X1024030D01*
X1014593D02*
X1018125D01*
X1024030Y784881D02*
X1025593D01*
X1022062D02*
X1024030D01*
X1014593D02*
X1018125D01*
X1025593Y778881D02*
Y784881D01*
X1014593Y778881D02*
Y784881D01*
Y769881D02*
Y775881D01*
X1025593Y769881D02*
Y775881D01*
X1014593D02*
X1018125D01*
X1022062D02*
X1024030D01*
X1025593D01*
X1014593Y769881D02*
X1018125D01*
X1022062D02*
X1024030D01*
X1025593D01*
X1076081Y778381D02*
Y784381D01*
X1065081Y778381D02*
Y784381D01*
X1072550Y778381D02*
X1076081D01*
X1066644D02*
X1068613D01*
X1065081D02*
X1066644D01*
X1072550Y784381D02*
X1076081D01*
X1066644D02*
X1068613D01*
X1065081D02*
X1066644D01*
X968837Y846881D02*
Y850080D01*
X970970Y846881D01*
Y850080D01*
X974169Y849547D02*
X973636Y850080D01*
X972569D01*
X972036Y849547D01*
Y847414D01*
X972569Y846881D01*
X973636D01*
X974169Y847414D01*
X976835Y846881D02*
Y850080D01*
X975235Y848481D01*
X977368D01*
X994837Y839776D02*
Y842975D01*
X996970Y839776D01*
Y842975D01*
X1000169Y842441D02*
X999636Y842975D01*
X998569D01*
X998036Y842441D01*
Y840309D01*
X998569Y839776D01*
X999636D01*
X1000169Y840309D01*
X1001235Y842441D02*
X1001768Y842975D01*
X1002835D01*
X1003368Y842441D01*
Y841908D01*
X1002835Y841375D01*
X1002302D01*
X1002835D01*
X1003368Y840842D01*
Y840309D01*
X1002835Y839776D01*
X1001768D01*
X1001235Y840309D01*
X1040837Y846881D02*
Y850080D01*
X1042970Y846881D01*
Y850080D01*
X1046169Y849547D02*
X1045636Y850080D01*
X1044569D01*
X1044036Y849547D01*
Y847414D01*
X1044569Y846881D01*
X1045636D01*
X1046169Y847414D01*
X1049368Y846881D02*
X1047235D01*
X1049368Y849014D01*
Y849547D01*
X1048835Y850080D01*
X1047768D01*
X1047235Y849547D01*
X1084337Y846881D02*
Y850080D01*
X1086470Y846881D01*
Y850080D01*
X1089669Y849547D02*
X1089136Y850080D01*
X1088069D01*
X1087536Y849547D01*
Y847414D01*
X1088069Y846881D01*
X1089136D01*
X1089669Y847414D01*
X1090735Y846881D02*
X1091801D01*
X1091268D01*
Y850080D01*
X1090735Y849547D01*
X1008470Y800547D02*
X1007937Y801080D01*
X1006870D01*
X1006337Y800547D01*
Y798414D01*
X1006870Y797881D01*
X1007937D01*
X1008470Y798414D01*
X1009536Y800547D02*
X1010069Y801080D01*
X1011136D01*
X1011669Y800547D01*
Y800014D01*
X1011136Y799481D01*
X1010603D01*
X1011136D01*
X1011669Y798947D01*
Y798414D01*
X1011136Y797881D01*
X1010069D01*
X1009536Y798414D01*
X988470Y833047D02*
X987937Y833580D01*
X986870D01*
X986337Y833047D01*
Y830914D01*
X986870Y830381D01*
X987937D01*
X988470Y830914D01*
X989536Y830381D02*
X990603D01*
X990069D01*
Y833580D01*
X989536Y833047D01*
X1001470D02*
X1000937Y833580D01*
X999870D01*
X999337Y833047D01*
Y830914D01*
X999870Y830381D01*
X1000937D01*
X1001470Y830914D01*
X1004669Y830381D02*
X1002536D01*
X1004669Y832514D01*
Y833047D01*
X1004136Y833580D01*
X1003069D01*
X1002536Y833047D01*
X1036470Y829047D02*
X1035937Y829580D01*
X1034870D01*
X1034337Y829047D01*
Y826914D01*
X1034870Y826381D01*
X1035937D01*
X1036470Y826914D01*
X1039136Y826381D02*
Y829580D01*
X1037536Y827981D01*
X1039669D01*
X1045470Y829547D02*
X1044937Y830080D01*
X1043870D01*
X1043337Y829547D01*
Y827414D01*
X1043870Y826881D01*
X1044937D01*
X1045470Y827414D01*
X1048669Y830080D02*
X1046536D01*
Y828481D01*
X1047603Y829014D01*
X1048136D01*
X1048669Y828481D01*
Y827414D01*
X1048136Y826881D01*
X1047069D01*
X1046536Y827414D01*
X1044470Y841341D02*
X1043937Y841875D01*
X1042870D01*
X1042337Y841341D01*
Y839209D01*
X1042870Y838676D01*
X1043937D01*
X1044470Y839209D01*
X1047669Y841875D02*
X1046603Y841341D01*
X1045536Y840275D01*
Y839209D01*
X1046069Y838676D01*
X1047136D01*
X1047669Y839209D01*
Y839742D01*
X1047136Y840275D01*
X1045536D01*
X973470Y842047D02*
X972937Y842580D01*
X971870D01*
X971337Y842047D01*
Y839914D01*
X971870Y839381D01*
X972937D01*
X973470Y839914D01*
X974536Y842047D02*
X975069Y842580D01*
X976136D01*
X976669Y842047D01*
Y841514D01*
X976136Y840981D01*
X976669Y840447D01*
Y839914D01*
X976136Y839381D01*
X975069D01*
X974536Y839914D01*
Y840447D01*
X975069Y840981D01*
X974536Y841514D01*
Y842047D01*
X975069Y840981D02*
X976136D01*
X1075471Y804447D02*
X1074938Y804981D01*
X1073872D01*
X1073339Y804447D01*
Y802315D01*
X1073872Y801782D01*
X1074938D01*
X1075471Y802315D01*
X1076538Y801782D02*
X1077604D01*
X1077071D01*
Y804981D01*
X1076538Y804447D01*
X1079203D02*
X1079737Y804981D01*
X1080803D01*
X1081336Y804447D01*
Y802315D01*
X1080803Y801782D01*
X1079737D01*
X1079203Y802315D01*
Y804447D01*
X1080970Y783047D02*
X1080437Y783580D01*
X1079370D01*
X1078837Y783047D01*
Y780914D01*
X1079370Y780381D01*
X1080437D01*
X1080970Y780914D01*
X1082036Y780381D02*
X1083103D01*
X1082569D01*
Y783580D01*
X1082036Y783047D01*
X1084702Y780381D02*
X1085768D01*
X1085235D01*
Y783580D01*
X1084702Y783047D01*
X1026337Y807414D02*
X1025803Y807947D01*
X1024737D01*
X1024204Y807414D01*
Y805281D01*
X1024737Y804748D01*
X1025803D01*
X1026337Y805281D01*
X1027403Y804748D02*
X1028469D01*
X1027936D01*
Y807947D01*
X1027403Y807414D01*
X1032201Y804748D02*
X1030069D01*
X1032201Y806880D01*
Y807414D01*
X1031668Y807947D01*
X1030602D01*
X1030069Y807414D01*
X1007470Y765547D02*
X1006937Y766080D01*
X1005870D01*
X1005337Y765547D01*
Y763414D01*
X1005870Y762881D01*
X1006937D01*
X1007470Y763414D01*
X1008536Y762881D02*
X1009603D01*
X1009069D01*
Y766080D01*
X1008536Y765547D01*
X1011202D02*
X1011735Y766080D01*
X1012801D01*
X1013335Y765547D01*
Y765014D01*
X1012801Y764481D01*
X1012268D01*
X1012801D01*
X1013335Y763947D01*
Y763414D01*
X1012801Y762881D01*
X1011735D01*
X1011202Y763414D01*
X971337Y836580D02*
Y833381D01*
X972937D01*
X973470Y833914D01*
Y836047D01*
X972937Y836580D01*
X971337D01*
X974536Y833381D02*
X975603D01*
X975069D01*
Y836580D01*
X974536Y836047D01*
X921264Y811742D02*
Y814941D01*
X922863D01*
X923396Y814408D01*
Y813342D01*
X922863Y812809D01*
X921264D01*
X924463Y811742D02*
X925529D01*
X924996D01*
Y814941D01*
X924463Y814408D01*
X1101672Y832782D02*
Y835981D01*
X1103271D01*
X1103804Y835447D01*
Y834381D01*
X1103271Y833848D01*
X1101672D01*
X1107003Y832782D02*
X1104870D01*
X1107003Y834914D01*
Y835447D01*
X1106470Y835981D01*
X1105404D01*
X1104870Y835447D01*
X920896Y802975D02*
Y806174D01*
X922496D01*
X923029Y805641D01*
Y804574D01*
X922496Y804041D01*
X920896D01*
X924095Y805641D02*
X924629Y806174D01*
X925695D01*
X926228Y805641D01*
Y805107D01*
X925695Y804574D01*
X925162D01*
X925695D01*
X926228Y804041D01*
Y803508D01*
X925695Y802975D01*
X924629D01*
X924095Y803508D01*
X1047705Y869282D02*
Y872481D01*
X1049304D01*
X1049837Y871947D01*
Y870881D01*
X1049304Y870348D01*
X1047705D01*
X1048771D02*
X1049837Y869282D01*
X1050904D02*
X1051970D01*
X1051437D01*
Y872481D01*
X1050904Y871947D01*
X971837Y868381D02*
Y871580D01*
X973437D01*
X973970Y871047D01*
Y869981D01*
X973437Y869447D01*
X971837D01*
X972904D02*
X973970Y868381D01*
X977169D02*
X975036D01*
X977169Y870514D01*
Y871047D01*
X976636Y871580D01*
X975569D01*
X975036Y871047D01*
X1097937Y797215D02*
X1094738D01*
Y798815D01*
X1095271Y799348D01*
X1096337D01*
X1096870Y798815D01*
Y797215D01*
Y798282D02*
X1097937Y799348D01*
Y802014D02*
X1094738D01*
X1096337Y800414D01*
Y802547D01*
X1006837Y771381D02*
Y774580D01*
X1008437D01*
X1008970Y774047D01*
Y772981D01*
X1008437Y772447D01*
X1006837D01*
X1007904D02*
X1008970Y771381D01*
X1012169Y774580D02*
X1010036D01*
Y772981D01*
X1011103Y773514D01*
X1011636D01*
X1012169Y772981D01*
Y771914D01*
X1011636Y771381D01*
X1010569D01*
X1010036Y771914D01*
X1079337Y762881D02*
Y766080D01*
X1080937D01*
X1081470Y765547D01*
Y764481D01*
X1080937Y763947D01*
X1079337D01*
X1080404D02*
X1081470Y762881D01*
X1084669Y766080D02*
X1083603Y765547D01*
X1082536Y764481D01*
Y763414D01*
X1083069Y762881D01*
X1084136D01*
X1084669Y763414D01*
Y763947D01*
X1084136Y764481D01*
X1082536D01*
X1006337Y779881D02*
Y783080D01*
X1007937D01*
X1008470Y782547D01*
Y781481D01*
X1007937Y780947D01*
X1006337D01*
X1007404D02*
X1008470Y779881D01*
X1009536Y783080D02*
X1011669D01*
Y782547D01*
X1009536Y780414D01*
Y779881D01*
X1078837Y771881D02*
Y775080D01*
X1080437D01*
X1080970Y774547D01*
Y773481D01*
X1080437Y772947D01*
X1078837D01*
X1079904D02*
X1080970Y771881D01*
X1082036Y772414D02*
X1082569Y771881D01*
X1083636D01*
X1084169Y772414D01*
Y774547D01*
X1083636Y775080D01*
X1082569D01*
X1082036Y774547D01*
Y774014D01*
X1082569Y773481D01*
X1084169D01*
X1029337Y782881D02*
Y786080D01*
X1030937D01*
X1031470Y785547D01*
Y784481D01*
X1030937Y783947D01*
X1029337D01*
X1030404D02*
X1031470Y782881D01*
X1032536D02*
X1033603D01*
X1033069D01*
Y786080D01*
X1032536Y785547D01*
X1035202Y782881D02*
X1036268D01*
X1035735D01*
Y786080D01*
X1035202Y785547D01*
X1005837Y789681D02*
Y792880D01*
X1007437D01*
X1007970Y792347D01*
Y791281D01*
X1007437Y790747D01*
X1005837D01*
X1006904D02*
X1007970Y789681D01*
X1009036D02*
X1010103D01*
X1009569D01*
Y792880D01*
X1009036Y792347D01*
X1011702D02*
X1012235Y792880D01*
X1013301D01*
X1013835Y792347D01*
Y791814D01*
X1013301Y791281D01*
X1012768D01*
X1013301D01*
X1013835Y790747D01*
Y790214D01*
X1013301Y789681D01*
X1012235D01*
X1011702Y790214D01*
X1011705Y830630D02*
Y827964D01*
X1012238Y827431D01*
X1013304D01*
X1013837Y827964D01*
Y830630D01*
X1014904Y827431D02*
X1015970D01*
X1015437D01*
Y830630D01*
X1014904Y830097D01*
X1032337Y761580D02*
Y758914D01*
X1032870Y758381D01*
X1033937D01*
X1034470Y758914D01*
Y761580D01*
X1037669Y758381D02*
X1035536D01*
X1037669Y760514D01*
Y761047D01*
X1037136Y761580D01*
X1036069D01*
X1035536Y761047D01*
X1073337Y834580D02*
Y831914D01*
X1073870Y831381D01*
X1074937D01*
X1075470Y831914D01*
Y834580D01*
X1076536Y834047D02*
X1077069Y834580D01*
X1078136D01*
X1078669Y834047D01*
Y833514D01*
X1078136Y832981D01*
X1077603D01*
X1078136D01*
X1078669Y832447D01*
Y831914D01*
X1078136Y831381D01*
X1077069D01*
X1076536Y831914D01*
X992837Y775881D02*
Y779080D01*
X994437D01*
X994970Y778547D01*
Y777481D01*
X994437Y776947D01*
X992837D01*
X993904D02*
X994970Y775881D01*
X996036Y778547D02*
X996569Y779080D01*
X997636D01*
X998169Y778547D01*
Y778014D01*
X997636Y777481D01*
X998169Y776947D01*
Y776414D01*
X997636Y775881D01*
X996569D01*
X996036Y776414D01*
Y776947D01*
X996569Y777481D01*
X996036Y778014D01*
Y778547D01*
X996569Y777481D02*
X997636D01*
X973837Y775381D02*
Y778580D01*
X975437D01*
X975970Y778047D01*
Y776981D01*
X975437Y776447D01*
X973837D01*
X974904D02*
X975970Y775381D01*
X977036D02*
X978103D01*
X977569D01*
Y778580D01*
X977036Y778047D01*
X981835Y778580D02*
X980768Y778047D01*
X979702Y776981D01*
Y775914D01*
X980235Y775381D01*
X981301D01*
X981835Y775914D01*
Y776447D01*
X981301Y776981D01*
X979702D01*
X1043337Y799381D02*
Y802580D01*
X1044937D01*
X1045470Y802047D01*
Y800981D01*
X1044937Y800447D01*
X1043337D01*
X1044404D02*
X1045470Y799381D01*
X1046536D02*
X1047603D01*
X1047069D01*
Y802580D01*
X1046536Y802047D01*
X1049202Y802580D02*
X1051335D01*
Y802047D01*
X1049202Y799914D01*
Y799381D01*
D35*
X987463Y761633D02*
X1003211D01*
X987463D02*
Y793129D01*
X1003211D01*
Y761633D02*
Y793129D01*
X1048837Y853976D02*
X1083837D01*
Y864881D01*
X1048837Y853976D02*
Y864881D01*
X1053837D01*
X1078837D02*
X1083837D01*
X1053837D02*
Y873661D01*
X1078837D01*
Y864881D02*
Y873661D01*
X969463Y761633D02*
X985211D01*
X969463D02*
Y793129D01*
X985211D01*
Y761633D02*
Y793129D01*
X1005337Y864881D02*
Y873661D01*
X980337D02*
X1005337D01*
X980337Y864881D02*
Y873661D01*
X1005337Y864881D02*
X1010337D01*
X975337D02*
X980337D01*
X975337Y853976D02*
Y864881D01*
X1010337Y853976D02*
Y864881D01*
X975337Y853976D02*
X1010337D01*
X968826Y820350D02*
X979849D01*
M02*
